<svg width="16" height="16" viewBox="0 0 16 16" fill="none" xmlns="http://www.w3.org/2000/svg">
<g clip-path="url(#clip0_30475_29120)">
<path d="M11.1133 8.75293C12.0267 9.37293 12.6667 10.2129 12.6667 11.3329V13.3329H15.3333V11.3329C15.3333 9.8796 12.9533 9.0196 11.1133 8.75293Z" fill="#858585"/>
<path d="M10 7.99984C11.4733 7.99984 12.6667 6.8065 12.6667 5.33317C12.6667 3.85984 11.4733 2.6665 10 2.6665C9.68668 2.6665 9.39334 2.73317 9.11334 2.8265C9.66668 3.51317 10 4.3865 10 5.33317C10 6.27984 9.66668 7.15317 9.11334 7.83984C9.39334 7.93317 9.68668 7.99984 10 7.99984Z" fill="#858585"/>
<path d="M6.00004 7.99984C7.47337 7.99984 8.66671 6.8065 8.66671 5.33317C8.66671 3.85984 7.47337 2.6665 6.00004 2.6665C4.52671 2.6665 3.33337 3.85984 3.33337 5.33317C3.33337 6.8065 4.52671 7.99984 6.00004 7.99984ZM6.00004 3.99984C6.73337 3.99984 7.33337 4.59984 7.33337 5.33317C7.33337 6.0665 6.73337 6.6665 6.00004 6.6665C5.26671 6.6665 4.66671 6.0665 4.66671 5.33317C4.66671 4.59984 5.26671 3.99984 6.00004 3.99984Z" fill="#858585"/>
<path d="M6.00002 8.6665C4.22002 8.6665 0.666687 9.55984 0.666687 11.3332V13.3332H11.3334V11.3332C11.3334 9.55984 7.78002 8.6665 6.00002 8.6665ZM10 11.9998H2.00002V11.3398C2.13335 10.8598 4.20002 9.99984 6.00002 9.99984C7.80002 9.99984 9.86669 10.8598 10 11.3332V11.9998Z" fill="#858585"/>
</g>
<defs>
<clipPath id="clip0_30475_29120">
<rect width="16" height="16" fill="white"/>
</clipPath>
</defs>
</svg>
