<svg width="24" height="24" viewBox="0 0 24 24" fill="none" xmlns="http://www.w3.org/2000/svg">
<path d="M19.8752 2.17534L19.875 2.17524C19.0205 1.71829 18.1811 1.5 16.0831 1.5H7.91692C5.81887 1.5 4.97947 1.71829 4.12498 2.17524C3.28536 2.62424 2.62413 3.28643 2.17534 4.1248L2.17524 4.12498C1.71829 4.97947 1.5 5.81887 1.5 7.91692V16.0831C1.5 18.1811 1.71829 19.0205 2.17524 19.875C2.62424 20.7146 3.28643 21.3759 4.1248 21.8247L4.12498 21.8248C4.97947 22.2817 5.81886 22.5 7.91692 22.5H16.0831C18.1811 22.5 19.0205 22.2817 19.875 21.8248C20.7146 21.3758 21.3759 20.7136 21.8247 19.8752L21.8248 19.875C22.2817 19.0205 22.5 18.1811 22.5 16.0831V7.91692C22.5 5.81886 22.2817 4.97947 21.8248 4.12498C21.3758 3.28536 20.7136 2.62413 19.8752 2.17534Z" fill="white" stroke="#E0E0E0"/>
<g clip-path="url(#clip0_28241_222717)">
<path d="M6.20798 14.8056C6.2894 14.811 6.37067 14.7933 6.44078 14.7548C6.46853 14.7362 6.49177 14.7125 6.50899 14.6852C6.52621 14.6579 6.53704 14.6276 6.5408 14.5962C6.54633 14.578 6.54781 14.5589 6.54515 14.54C6.54248 14.5212 6.53572 14.5031 6.52528 14.4868C6.48798 14.4426 6.44172 14.4054 6.38905 14.3774L6.11141 14.2013C6.05572 14.1674 6.00674 14.1251 5.96656 14.076C5.93539 14.0369 5.91579 13.991 5.90965 13.9428C5.90039 13.8929 5.90039 13.842 5.90965 13.7921C5.93377 13.6654 6.00965 13.5519 6.12176 13.4749C6.26315 13.3913 6.42988 13.3512 6.5977 13.3607C6.67566 13.3606 6.75332 13.3697 6.82877 13.3877C6.88909 13.4001 6.94716 13.4204 7.00122 13.448C7.01371 13.4558 7.02527 13.4649 7.03571 13.4749C7.03845 13.4801 7.03988 13.4858 7.03988 13.4916C7.03988 13.4974 7.03845 13.5031 7.03571 13.5082L6.99949 13.6668C6.99087 13.7033 6.96845 13.7144 6.93052 13.7001C6.87475 13.6802 6.81699 13.6653 6.75807 13.6557C6.68773 13.6421 6.61613 13.6346 6.54424 13.6335C6.3718 13.6335 6.27696 13.6859 6.25282 13.7921C6.24813 13.8078 6.2474 13.8242 6.25069 13.8401C6.25398 13.8561 6.26119 13.8711 6.27178 13.8841C6.31137 13.9239 6.35662 13.9586 6.40629 13.9872L6.66151 14.1458C6.72706 14.1831 6.78535 14.2303 6.83395 14.2854C6.86805 14.3281 6.89106 14.3775 6.9012 14.4297C6.90771 14.4864 6.90421 14.5437 6.89085 14.5994C6.87098 14.6821 6.83218 14.7599 6.77704 14.8278C6.71238 14.9047 6.62753 14.9653 6.53045 15.0038C6.41137 15.0511 6.28246 15.0739 6.1528 15.0704C6.06254 15.0713 5.97258 15.0606 5.88551 15.0387C5.82974 15.0265 5.77627 15.0068 5.72686 14.98C5.71233 14.9729 5.69945 14.9632 5.68893 14.9515C5.6867 14.9467 5.68555 14.9416 5.68555 14.9364C5.68555 14.9312 5.6867 14.9261 5.68893 14.9213L5.72342 14.7627C5.72416 14.7557 5.72681 14.7489 5.73112 14.743C5.73543 14.7371 5.74127 14.7323 5.74812 14.7289C5.75496 14.7256 5.76259 14.724 5.77032 14.724C5.77805 14.7241 5.78564 14.726 5.79239 14.7294C5.92525 14.7734 6.06507 14.797 6.20626 14.7992" fill="#009EDB"/>
<path d="M7.59012 14.8197C7.69911 14.8169 7.80711 14.7998 7.91086 14.7689C7.94707 14.7689 7.96087 14.7689 7.95397 14.8054L7.92121 14.9482C7.91849 14.9607 7.91191 14.9723 7.90224 14.9815C7.88804 14.9914 7.87236 14.9994 7.85568 15.0053C7.75406 15.0501 7.64243 15.0723 7.52976 15.0703C7.43456 15.0732 7.34013 15.0535 7.25558 15.0132C7.18044 14.9751 7.12467 14.9112 7.10038 14.8356C7.07071 14.7348 7.07071 14.6286 7.10038 14.5279L7.14866 14.3201C7.17047 14.2104 7.21815 14.1065 7.28834 14.0156C7.35058 13.9385 7.43225 13.8765 7.52631 13.8348C7.62282 13.7975 7.7269 13.7797 7.83154 13.7825C7.93571 13.7773 8.03931 13.7998 8.12986 13.8475C8.14267 13.8529 8.15389 13.8611 8.16263 13.8713C8.16733 13.882 8.16733 13.8939 8.16263 13.9046L8.12814 14.0473C8.12814 14.0806 8.10055 14.0917 8.06951 14.0838C8.03847 14.0759 7.97467 14.0553 7.93328 14.0457C7.88292 14.0354 7.8314 14.0306 7.7798 14.0315C7.61598 14.0315 7.51252 14.1298 7.46768 14.3249L7.41767 14.5326C7.39266 14.6069 7.39818 14.6871 7.43319 14.7578C7.45021 14.7799 7.47308 14.7977 7.49964 14.8093C7.52621 14.821 7.55557 14.8262 7.58494 14.8245" fill="#009EDB"/>
<path d="M8.85823 14.0231C8.72201 14.0243 8.58668 14.0435 8.45643 14.0802C8.42022 14.0897 8.40642 14.0802 8.41505 14.0437L8.44609 13.9073C8.44814 13.8946 8.45483 13.8829 8.46506 13.874C8.47861 13.8641 8.49373 13.8561 8.50989 13.8502C8.57374 13.8283 8.63951 13.8113 8.70648 13.7995C8.78556 13.7865 8.86584 13.7806 8.94617 13.7821C9.0345 13.7793 9.12236 13.795 9.20311 13.828C9.26801 13.8575 9.3176 13.9094 9.34107 13.9724C9.36393 14.0497 9.36393 14.1313 9.34107 14.2087L9.16862 14.9699C9.16783 14.9818 9.16367 14.9933 9.15655 15.0032C9.14778 15.0116 9.13628 15.0172 9.12379 15.0191C9.04791 15.0366 8.97549 15.0508 8.90651 15.0603C8.82307 15.0706 8.73893 15.0754 8.65474 15.0746C8.54743 15.0778 8.44027 15.065 8.33745 15.0366C8.30353 15.0273 8.27199 15.0119 8.24472 14.9912C8.21746 14.9705 8.19504 14.9449 8.1788 14.916C8.15015 14.8465 8.14652 14.7703 8.16845 14.6987V14.6876C8.18236 14.6286 8.20621 14.5718 8.23916 14.5195C8.27053 14.4719 8.31365 14.4317 8.36504 14.4022C8.42284 14.3665 8.488 14.3423 8.55645 14.3308C8.64662 14.3136 8.73857 14.3057 8.83063 14.307H9.00308L9.0255 14.2087C9.04102 14.1389 9.03584 14.0913 9.00825 14.0659C8.96355 14.0358 8.90815 14.0222 8.85305 14.0279L8.85823 14.0231ZM8.88064 14.8335L8.95652 14.5037H8.78407C8.72594 14.5007 8.66768 14.5066 8.61163 14.5211C8.57788 14.5294 8.54886 14.5492 8.53058 14.5766C8.51044 14.6091 8.49644 14.6445 8.4892 14.6813V14.6956C8.47861 14.7265 8.47861 14.7598 8.4892 14.7907C8.49466 14.8026 8.50314 14.8132 8.51394 14.8215C8.52475 14.8297 8.53755 14.8355 8.55128 14.8383C8.60087 14.8496 8.65196 14.8544 8.70303 14.8526C8.76118 14.8534 8.81919 14.847 8.87547 14.8335" fill="#009EDB"/>
<path d="M10.5603 15.0053C10.5565 15.0182 10.5487 15.0297 10.5379 15.0386C10.5269 15.0473 10.5127 15.0518 10.4982 15.0513H10.274C10.2682 15.0515 10.2624 15.0503 10.2572 15.0478C10.2521 15.0453 10.2478 15.0416 10.2447 15.037C10.2405 15.0262 10.2405 15.0145 10.2447 15.0037L10.4171 14.2662C10.4301 14.2207 10.4336 14.1734 10.4275 14.1267C10.4251 14.1108 10.4187 14.0956 10.4088 14.0824C10.3989 14.0692 10.3859 14.0583 10.3706 14.0505C10.3266 14.0311 10.2779 14.0223 10.2292 14.0252C10.1456 14.0258 10.0623 14.0349 9.98086 14.0521L9.76014 15.0037C9.75749 15.0166 9.7502 15.0283 9.73944 15.037C9.72873 15.0463 9.71451 15.0514 9.69978 15.0513H9.47561C9.46952 15.0516 9.46344 15.0505 9.45799 15.048C9.45254 15.0455 9.44791 15.0417 9.44457 15.037C9.44035 15.0262 9.44035 15.0145 9.44457 15.0037L9.70323 13.8935C9.70323 13.8713 9.72737 13.857 9.76186 13.8491C9.8516 13.828 9.94257 13.8116 10.0343 13.7999C10.1195 13.7893 10.2053 13.7835 10.2913 13.7825C10.3617 13.7748 10.4332 13.7811 10.5007 13.8011C10.5683 13.8211 10.6304 13.8542 10.6827 13.8983C10.7208 13.953 10.7449 14.015 10.7532 14.0795C10.7616 14.1441 10.754 14.2095 10.731 14.271L10.5603 15.0053Z" fill="#009EDB"/>
<path d="M12.2218 15.0144C12.2218 15.0366 12.1994 15.0493 12.1683 15.054C12.104 15.0643 12.0388 15.0696 11.9735 15.0699C11.901 15.0746 11.8281 15.0682 11.7579 15.0508C11.7336 15.0427 11.7119 15.0289 11.695 15.0109C11.6781 14.9928 11.6665 14.9711 11.6613 14.9478C11.6472 14.8728 11.6513 14.7959 11.6734 14.7226L11.8355 14.0216L11.6424 13.9898C11.6096 13.9898 11.5975 13.9708 11.6027 13.9454L11.6269 13.8455C11.6286 13.8331 11.6353 13.8218 11.6458 13.8138C11.6563 13.8053 11.6698 13.8008 11.6838 13.8011H11.8855L11.9286 13.6171C11.9317 13.6048 11.9391 13.5938 11.9497 13.5857C11.9603 13.5777 11.9735 13.5731 11.9873 13.5727L12.2218 13.5283H12.2321C12.258 13.5283 12.2666 13.5394 12.2614 13.5616L12.208 13.7932H12.4546C12.4606 13.7927 12.4666 13.7935 12.4723 13.7954C12.478 13.7973 12.4831 13.8003 12.4873 13.8043C12.4901 13.8095 12.4915 13.8152 12.4915 13.8209C12.4915 13.8267 12.4901 13.8324 12.4873 13.8376L12.4563 13.9692C12.4536 13.9817 12.4463 13.9929 12.4356 14.0009C12.4248 14.0088 12.4115 14.0133 12.3977 14.0136H12.158L11.9959 14.7146C11.9874 14.7491 11.9874 14.7848 11.9959 14.8193C11.9959 14.832 12.0269 14.8399 12.07 14.8399H12.2218C12.2563 14.8399 12.2701 14.851 12.2666 14.8732L12.2218 15.0144Z" fill="#009EDB"/>
<path d="M13.6468 14.5135C13.624 14.6167 13.5782 14.7144 13.5123 14.8006C13.4503 14.8841 13.3668 14.9523 13.2691 14.9988C13.1665 15.0479 13.052 15.0724 12.9363 15.0702C12.8313 15.0748 12.7272 15.0499 12.638 14.9988C12.5616 14.9531 12.5073 14.8821 12.4862 14.8006C12.4603 14.7063 12.4603 14.6077 12.4862 14.5135L12.5276 14.3343C12.5495 14.2311 12.5948 14.1333 12.6604 14.0472C12.7242 13.9622 12.811 13.8939 12.9122 13.849C13.013 13.8036 13.1241 13.7808 13.2364 13.7824C13.342 13.7774 13.4467 13.8023 13.5364 13.8537C13.612 13.9002 13.6661 13.9708 13.6882 14.052C13.7124 14.1464 13.7124 14.2446 13.6882 14.339L13.6468 14.5135ZM13.326 14.5135L13.3674 14.3343C13.3916 14.261 13.386 14.1821 13.3519 14.1122C13.3343 14.0853 13.3088 14.0634 13.2783 14.0491C13.2478 14.0348 13.2135 14.0286 13.1795 14.0314C13.1402 14.0307 13.1012 14.0375 13.065 14.0514C13.0288 14.0654 12.9961 14.0861 12.9691 14.1122C12.9073 14.1744 12.8661 14.2514 12.8501 14.3343L12.8087 14.5135C12.7855 14.5865 12.7916 14.6647 12.8259 14.7339C12.8423 14.762 12.8676 14.7849 12.8983 14.7996C12.9291 14.8144 12.964 14.8202 12.9984 14.8164C13.0375 14.8169 13.0763 14.8098 13.1122 14.7956C13.1482 14.7814 13.1805 14.7604 13.207 14.7339C13.2697 14.673 13.3112 14.5962 13.326 14.5135Z" fill="#009EDB"/>
<path d="M15.8996 13.9105C15.8857 13.9921 15.8529 14.0699 15.8035 14.1388C15.7542 14.2078 15.6893 14.2662 15.6134 14.3102C15.4511 14.3961 15.266 14.4389 15.0788 14.4339H14.996H14.9115H14.865L14.7322 15.0175C14.7291 15.0303 14.7212 15.0415 14.7098 15.0493C14.7002 15.057 14.688 15.0615 14.6753 15.0619H14.4321C14.4263 15.0619 14.4205 15.0607 14.4152 15.0585C14.4099 15.0563 14.4051 15.0532 14.4011 15.0493C14.3981 15.0444 14.3965 15.039 14.3965 15.0334C14.3965 15.0278 14.3981 15.0224 14.4011 15.0175L14.7477 13.4649C14.7512 13.446 14.7623 13.429 14.7788 13.4173C14.7981 13.4065 14.82 13.4 14.8426 13.3983C15.0024 13.3764 15.1638 13.3663 15.3254 13.3681C15.4948 13.3582 15.6629 13.4006 15.8031 13.4887C15.8603 13.5381 15.9004 13.6018 15.9185 13.672C15.9366 13.7423 15.9318 13.8158 15.9048 13.8836L15.8996 13.9105ZM15.5651 13.9105V13.8899C15.5785 13.8565 15.5818 13.8204 15.5745 13.7855C15.5672 13.7505 15.5496 13.7181 15.5237 13.6917C15.4468 13.6437 15.354 13.6224 15.2616 13.6314C15.189 13.6312 15.1165 13.6343 15.0443 13.6409L14.9202 14.1722C14.9978 14.1722 15.0702 14.1722 15.1357 14.1722C15.2088 14.1741 15.2817 14.1644 15.3513 14.1437C15.4053 14.1264 15.4531 14.0956 15.4892 14.0549C15.5263 14.0078 15.5511 13.9535 15.5617 13.8963" fill="#009EDB"/>
<path d="M16.429 14.0231C16.2928 14.0243 16.1574 14.0435 16.0272 14.0802C15.991 14.0897 15.9772 14.0802 15.9858 14.0437L16.0169 13.9073C16.0189 13.8946 16.0256 13.8829 16.0358 13.874C16.0494 13.8641 16.0645 13.8561 16.0807 13.8502C16.1445 13.8283 16.2103 13.8113 16.2772 13.7995C16.358 13.7862 16.4401 13.7803 16.5221 13.7821C16.6104 13.7793 16.6983 13.795 16.7791 13.828C16.8439 13.8575 16.8935 13.9094 16.917 13.9724C16.9399 14.0497 16.9399 14.1313 16.917 14.2087L16.7446 14.9699C16.7426 14.9818 16.7379 14.9932 16.7308 15.0032C16.7223 15.012 16.7106 15.0176 16.698 15.0191C16.6221 15.0366 16.5497 15.0508 16.4807 15.0603C16.3973 15.0706 16.3131 15.0754 16.229 15.0746C16.1217 15.0778 16.0145 15.065 15.9117 15.0366C15.8777 15.0273 15.8462 15.0119 15.8189 14.9912C15.7917 14.9705 15.7693 14.9449 15.753 14.916C15.7244 14.8465 15.7207 14.7703 15.7427 14.6987V14.6876C15.7566 14.6286 15.7804 14.5718 15.8134 14.5195C15.8447 14.4719 15.8879 14.4317 15.9393 14.4022C15.9971 14.3665 16.0622 14.3423 16.1307 14.3308C16.2208 14.3136 16.3128 14.3057 16.4049 14.307H16.5773L16.5997 14.2087C16.6152 14.1389 16.6101 14.0913 16.5825 14.0659C16.5378 14.0358 16.4824 14.0222 16.4273 14.0279L16.429 14.0231ZM16.4549 14.8335L16.5325 14.4989H16.36C16.3019 14.496 16.2436 14.5019 16.1876 14.5164C16.1538 14.5246 16.1248 14.5445 16.1065 14.5719C16.0864 14.6043 16.0724 14.6397 16.0651 14.6765V14.6908C16.0546 14.7218 16.0546 14.755 16.0651 14.786C16.0706 14.7979 16.0791 14.8084 16.0899 14.8167C16.1007 14.825 16.1135 14.8308 16.1272 14.8335C16.1768 14.8449 16.2279 14.8497 16.279 14.8478C16.3371 14.8487 16.3951 14.8423 16.4514 14.8288" fill="#009EDB"/>
<path d="M18.4306 13.8311V13.8438L17.7236 15.1475C17.6862 15.2211 17.6393 15.2903 17.5839 15.3536C17.5373 15.4028 17.478 15.4404 17.4115 15.4631C17.3266 15.4895 17.2372 15.5018 17.1476 15.4996C17.1021 15.4992 17.0565 15.4961 17.0114 15.49C16.9723 15.4864 16.9336 15.4795 16.8959 15.4694C16.8648 15.4694 16.8493 15.4488 16.8545 15.4314L16.8873 15.2886C16.8884 15.2828 16.8908 15.2773 16.8944 15.2724C16.8979 15.2674 16.9026 15.2633 16.908 15.2601C16.9189 15.2526 16.9323 15.2487 16.9459 15.249H17.0804L17.2166 15.2569C17.2482 15.2573 17.2796 15.253 17.3097 15.2442C17.3368 15.2356 17.3611 15.2208 17.3804 15.2014C17.4054 15.1745 17.4263 15.1446 17.4425 15.1126L17.477 15.046H17.4408C17.4149 15.046 17.3892 15.0417 17.3649 15.0333C17.3386 15.0231 17.3172 15.0045 17.3046 14.9809C17.2847 14.9433 17.2735 14.9022 17.2718 14.8604L17.1908 13.8375C17.19 13.8322 17.19 13.8269 17.1908 13.8216C17.1929 13.8105 17.1997 13.8006 17.2097 13.794C17.2197 13.7875 17.2321 13.7849 17.2442 13.7867H17.4908C17.4958 13.7865 17.5007 13.7874 17.5052 13.7894C17.5097 13.7913 17.5136 13.7942 17.5167 13.7978C17.5236 13.8059 17.5273 13.816 17.527 13.8264L17.5684 14.7415C17.5684 14.7748 17.5684 14.7906 17.5891 14.7906H17.6115L18.0961 13.8311C18.1001 13.8201 18.1077 13.8105 18.1179 13.8037C18.1281 13.7968 18.1404 13.7931 18.153 13.793H18.4013C18.4065 13.7927 18.4118 13.7936 18.4166 13.7955C18.4214 13.7974 18.4256 13.8004 18.4289 13.8042C18.4315 13.8082 18.4328 13.8129 18.4328 13.8176C18.4328 13.8224 18.4315 13.827 18.4289 13.8311" fill="#009EDB"/>
<path fill-rule="evenodd" clip-rule="evenodd" d="M3.59961 9.52393H4.74635L5.70341 11.9505L6.53114 9.93786C6.5381 9.9089 6.53863 9.87894 6.53271 9.84978C6.52678 9.82062 6.51452 9.79286 6.49665 9.76816C6.45354 9.68728 6.40698 9.60957 6.3587 9.5271H7.22091C7.17263 9.68569 7.09675 9.86808 7.03295 10.0362L5.91207 12.864C5.58124 12.816 5.27107 12.6854 5.01537 12.4865C4.84553 12.3264 4.72115 12.1303 4.65324 11.9156L3.72894 9.76341C3.6928 9.68055 3.64955 9.60047 3.59961 9.52393H3.59961ZM8.16935 10.6611V12.3961C8.16935 12.4659 8.19004 12.477 8.24177 12.5357L8.46422 12.7942H7.39335C7.45026 12.7101 7.51234 12.6277 7.57442 12.5499C7.61841 12.5021 7.64228 12.4413 7.64167 12.3787V9.95531L7.33127 9.52393H8.44871L10.2559 11.573V9.93786C10.2591 9.87613 10.237 9.81554 10.1938 9.76816C10.1352 9.68728 10.0714 9.60957 10.0076 9.5271H11.0854L10.8612 9.78561C10.8392 9.80259 10.8218 9.82404 10.8105 9.84827C10.7991 9.87249 10.794 9.89883 10.7957 9.92518V12.8751C10.3852 12.8307 10.0041 12.7403 9.6696 12.3549L8.16935 10.6611Z" fill="#ED1C24"/>
<path d="M11.5216 12.295V10.0572C11.5277 9.94939 11.5101 9.84151 11.4699 9.74005C11.4274 9.66304 11.3645 9.59707 11.2871 9.54815V9.53863H12.8822C13.132 9.52741 13.3804 9.57837 13.6013 9.68613C13.7582 9.76461 13.8847 9.88598 13.9634 10.0335C14.0249 10.1559 14.0578 10.2888 14.06 10.4236C14.06 10.9449 13.7295 11.262 13.0684 11.3752L12.7236 11.4037C12.6573 11.394 12.5905 11.3876 12.5235 11.3847C12.6869 11.3316 12.827 11.2312 12.9228 11.0984C13.0186 10.9657 13.0649 10.8079 13.0546 10.6488C13.0546 10.2259 12.8661 10.0144 12.489 10.0144V12.1809C12.4773 12.2901 12.4939 12.4004 12.5373 12.5026C12.5808 12.6049 12.6499 12.6962 12.7391 12.7692V12.7899H11.2871V12.7788C11.3684 12.7237 11.4328 12.6502 11.4739 12.5654C11.515 12.4806 11.5314 12.3874 11.5216 12.295Z" fill="#005AAA"/>
<path d="M14.0676 12.0492L14.8091 10.1349C14.8475 10.0413 14.8708 9.94294 14.8781 9.84308C14.8745 9.78199 14.8539 9.72278 14.8183 9.67112C14.7826 9.61946 14.7332 9.57709 14.6746 9.54809V9.53857H16.0007L17.0509 12.1205C17.0978 12.2527 17.1615 12.3794 17.2406 12.498C17.3159 12.5981 17.4045 12.6893 17.5044 12.7692V12.7898H15.8541V12.7692C15.9165 12.7466 15.9706 12.7083 16.0103 12.6586C16.0499 12.6089 16.0735 12.5499 16.0783 12.4885C16.0772 12.4159 16.0627 12.344 16.0352 12.276L15.8627 11.8002H14.7832L14.6229 12.2141C14.589 12.3044 14.5642 12.3972 14.5487 12.4916C14.55 12.5407 14.5674 12.5883 14.5987 12.628C14.6403 12.6803 14.691 12.7258 14.7487 12.7628V12.7835H13.6348V12.7628C13.7391 12.6865 13.8248 12.5908 13.8865 12.4821C13.9141 12.4298 13.94 12.3711 13.9676 12.3029C13.9952 12.2347 14.0297 12.1443 14.0676 12.0428V12.0492ZM14.9402 11.3371H15.6868L15.304 10.3585L14.9402 11.3371Z" fill="#005AAA"/>
<path d="M18.1246 11.3111L17.09 9.90591C17.0313 9.82543 16.9661 9.74909 16.8951 9.67753C16.8416 9.63034 16.7839 9.58737 16.7227 9.54907V9.53955H18.0384L18.8437 10.7163L19.3024 10.1184C19.3499 10.0549 19.386 9.98474 19.4093 9.91067C19.4258 9.86415 19.4322 9.81513 19.4283 9.76634C19.4203 9.71842 19.3989 9.67322 19.3663 9.63514C19.3337 9.59706 19.2908 9.56741 19.242 9.54907V9.53955H20.4992L19.1438 11.3111V12.1405C19.1438 12.1754 19.1438 12.2087 19.1438 12.242C19.1438 12.2753 19.1438 12.3023 19.1438 12.3261C19.1508 12.38 19.1635 12.4331 19.1817 12.4847C19.2131 12.5959 19.2842 12.6941 19.3834 12.7638V12.7844H17.8884V12.7638C18.047 12.6925 18.1246 12.537 18.1246 12.2991V11.3111Z" fill="#005AAA"/>
</g>
<defs>
<clipPath id="clip0_28241_222717">
<rect width="18" height="6" fill="white" transform="translate(3 9.5)"/>
</clipPath>
</defs>
</svg>
